# xmcd CD database file
#
# Track frame offsets:
#	150
#	13598
#	26820
#	41361
#	52825
#	68651
#	82108
#	94431
#	107756
#	119579
#	131015
#	143514
#	158924
#	170643
#	181662
#	194308
#
# Disc length: 2733 seconds
#
# Revision: 0
# Processed by: cddbd v1.5.1PL2 Copyright (c) Steve Scherf et al.
# Submitted via: CDex 1.51
#
DISCID=d60aab10
DTITLE=Costa Brothers - On The Road
DYEAR=2005
DGENRE=Country
TTITLE0=Mountain of Love
TTITLE1=Tequila Sunrise
TTITLE2=It's Five O'Clock Somewhere
TTITLE3=It's Only Make Believe
TTITLE4=Grandpa Piano
TTITLE5=Behind Closed Doors
TTITLE6=Oh Lonesome Me
TTITLE7=Tulsa Time
TTITLE8=Before The Next Teardrop Falls
TTITLE9=We Really Shouldn't Be Doing This
TTITLE10=Room Full Of Roses
TTITLE11=Beer For My Horse
TTITLE12=White Sports Coat
TTITLE13=Try A Little Kindness
TTITLE14=Kiss Me Quick
TTITLE15=On The Road Again
EXTD=YEAR: 2005
EXTT0=
EXTT1=
EXTT2=
EXTT3=
EXTT4=
EXTT5=
EXTT6=
EXTT7=
EXTT8=
EXTT9=
EXTT10=
EXTT11=
EXTT12=
EXTT13=
EXTT14=
EXTT15=
PLAYORDER=
